<svg clip-rule="evenodd" fill-rule="evenodd" height="512" image-rendering="optimizeQuality" shape-rendering="geometricPrecision" text-rendering="geometricPrecision" viewBox="0 0 512 512" width="512" xmlns="http://www.w3.org/2000/svg" xmlns:xodm="http://www.corel.com/coreldraw/odm/2003"><g id="Layer_x0020_1"><path d="m220.57 338.64c-13.44 70.48-29.86 138.06-78.5 173.36-15.01-106.54 22.05-186.55 39.25-271.49-29.34-49.4 3.53-148.8 65.42-124.3 76.15 30.12-65.94 183.63 29.45 202.8 99.6 20.01 140.25-172.81 78.5-235.51-89.24-90.55-259.76-2.07-238.79 127.57 5.1 31.69 37.85 41.31 13.09 85.04-57.12-12.66-74.16-57.7-71.97-117.75 3.53-98.3 88.32-167.12 173.37-176.64 107.55-12.04 208.49 39.48 222.43 140.66 15.7 114.19-48.55 237.86-163.55 228.97-31.18-2.42-44.26-17.87-68.7-32.71z" fill-rule="nonzero"/></g></svg>